<svg xmlns="http://www.w3.org/2000/svg" viewBox="0 0 38.59 38.59"><defs><style>.cls-1{fill:#232323;}</style></defs><title>Asset 7</title><g id="Layer_2" data-name="Layer 2"><g id="Layer_1-2" data-name="Layer 1"><g id="blogger-letter-logotype"><path id="Blogger" class="cls-1" d="M26.28,38.59A12.26,12.26,0,0,0,38.52,26.42l.07-9.85L38.48,16l-.32-.67-.55-.43c-.71-.55-4.31,0-5.28-.84-.69-.63-.79-1.76-1-3.3-.39-3-.63-3.13-1.1-4.14C28.54,3.07,23.94.37,20.78,0H12.23A12.25,12.25,0,0,0,0,12.19V26.42A12.24,12.24,0,0,0,12.23,38.59ZM12.38,10h6.79a2.33,2.33,0,0,1,0,4.66H12.39a2.33,2.33,0,1,1,0-4.66h0ZM10.05,26.24a2.32,2.32,0,0,1,2.34-2.32H26.17a2.32,2.32,0,0,1,0,4.64H12.39A2.34,2.34,0,0,1,10.05,26.24Z"/></g></g></g></svg>