<svg xmlns="http://www.w3.org/2000/svg" viewBox="0 0 33.67 39.17"><defs><style>.cls-1{fill:#232323;}</style></defs><title>Asset 3</title><g id="Layer_2" data-name="Layer 2"><g id="Layer_1-2" data-name="Layer 1"><g id="shopping-bag"><g id="Group_25" data-name="Group 25"><path id="Path_197" data-name="Path 197" class="cls-1" d="M31.52,10.69a.3.3,0,0,0-.3-.28H25.71V8.88A8.88,8.88,0,1,0,8,8.88v1.53H2.45a.31.31,0,0,0-.31.28L0,38.85a.31.31,0,0,0,.29.32H33.36a.3.3,0,0,0,.31-.3v0ZM10.41,8.88a6.43,6.43,0,1,1,12.85,0v1.53H10.41ZM9.18,19a3.08,3.08,0,0,1-3.06-3.06A2.89,2.89,0,0,1,8,13.12v2.8a1.23,1.23,0,0,0,2.45,0v-2.8a2.89,2.89,0,0,1,1.83,2.8A3.07,3.07,0,0,1,9.18,19Zm15.3,0a3.08,3.08,0,0,1-3.06-3.06,2.89,2.89,0,0,1,1.84-2.8v2.8a1.23,1.23,0,0,0,2.45,0v-2.8a2.89,2.89,0,0,1,1.83,2.8A3.07,3.07,0,0,1,24.48,19Z"/></g></g></g></g></svg>