<svg xmlns="http://www.w3.org/2000/svg" viewBox="0 0 63.88 39.35"><defs><style>.cls-1{fill:#232323;}</style></defs><title>Asset 6</title><g id="Layer_2" data-name="Layer 2"><g id="Layer_1-2" data-name="Layer 1"><g id="graduation-cap"><g id="Group_27" data-name="Group 27"><g id="Group_26" data-name="Group 26"><path id="Path_199" data-name="Path 199" class="cls-1" d="M58,26.29l0-6.11,5.88-3.29L31.85,0,0,17.23l12.77,7.33,0,4.36v.35l.11-.06a1,1,0,0,0-.22.56c0,2.14,8.66,3.84,19.34,3.78s19.31-1.85,19.3-4A1.07,1.07,0,0,0,51.1,29l.12.06v-.35l0-4.38,5.54-3.44,0,5.41a1.66,1.66,0,1,0,1.27,0ZM32,32.07c-9.48.06-17.16-1-17.17-2.31S22.53,27.32,32,27.27s17.15,1,17.16,2.31S41.5,32,32,32.07ZM50.76,20.79c-1.28-1.35-5.88-4.91-18.82-4.84s-17.5,3.67-18.76,5V19.7S16.84,14.1,31.93,14,50.75,19.5,50.75,19.5Zm5.31,9.1-.66,9.46c2-3.17,3.7-2,3.7-2l0-7.49c-2.16.85-3,0-3,0Z"/></g></g></g></g></g></svg>